<mxfile host="app.diagrams.net" agent="Mozilla/5.0 (Windows NT 10.0; Win64; x64; rv:137.0) Gecko/20100101 Firefox/137.0" version="27.1.4">
  <diagram name="Page-1" id="BujZoUWbbAuTylbUrR1K">
    <mxGraphModel dx="1103" dy="1202" grid="0" gridSize="10" guides="1" tooltips="1" connect="1" arrows="1" fold="1" page="0" pageScale="1" pageWidth="850" pageHeight="1100" math="0" shadow="0">
      <root>
        <mxCell id="0" />
        <mxCell id="1" parent="0" />
        <mxCell id="QD17FKgBwL-icGlesGAo-3" style="edgeStyle=none;curved=1;rounded=0;orthogonalLoop=1;jettySize=auto;html=1;exitX=0;exitY=1;exitDx=0;exitDy=0;fontSize=12;startSize=8;endSize=8;entryX=0.5;entryY=0;entryDx=0;entryDy=0;" edge="1" parent="1" source="6ozQBMaHB9t8dY59FctQ-1" target="6ozQBMaHB9t8dY59FctQ-2">
          <mxGeometry relative="1" as="geometry" />
        </mxCell>
        <mxCell id="6ozQBMaHB9t8dY59FctQ-1" value="&lt;div&gt;100-PRODUCE-EMPLOYEE-LIST&lt;/div&gt;" style="rounded=0;whiteSpace=wrap;html=1;" parent="1" vertex="1">
          <mxGeometry x="63" y="-191" width="120" height="60" as="geometry" />
        </mxCell>
        <mxCell id="QD17FKgBwL-icGlesGAo-1" style="edgeStyle=none;curved=1;rounded=0;orthogonalLoop=1;jettySize=auto;html=1;exitX=0.25;exitY=1;exitDx=0;exitDy=0;entryX=0.5;entryY=0;entryDx=0;entryDy=0;fontSize=12;startSize=8;endSize=8;" edge="1" parent="1" source="6ozQBMaHB9t8dY59FctQ-2" target="6ozQBMaHB9t8dY59FctQ-5">
          <mxGeometry relative="1" as="geometry" />
        </mxCell>
        <mxCell id="QD17FKgBwL-icGlesGAo-2" style="edgeStyle=none;curved=1;rounded=0;orthogonalLoop=1;jettySize=auto;html=1;exitX=0.75;exitY=1;exitDx=0;exitDy=0;entryX=0.5;entryY=0;entryDx=0;entryDy=0;fontSize=12;startSize=8;endSize=8;" edge="1" parent="1" source="6ozQBMaHB9t8dY59FctQ-2" target="6ozQBMaHB9t8dY59FctQ-6">
          <mxGeometry relative="1" as="geometry" />
        </mxCell>
        <mxCell id="6ozQBMaHB9t8dY59FctQ-2" value="&lt;div&gt;101-INIT-ROUTINE&lt;/div&gt;" style="rounded=0;whiteSpace=wrap;html=1;" parent="1" vertex="1">
          <mxGeometry x="-160" y="1" width="120" height="60" as="geometry" />
        </mxCell>
        <mxCell id="6ozQBMaHB9t8dY59FctQ-3" value="&lt;div&gt;102-ACCEPT-EMPLOYEE-RECORD&lt;/div&gt;" style="rounded=0;whiteSpace=wrap;html=1;" parent="1" vertex="1">
          <mxGeometry x="50" y="1" width="120" height="60" as="geometry" />
        </mxCell>
        <mxCell id="6ozQBMaHB9t8dY59FctQ-4" value="&lt;div&gt;104-CLOSE-ROUTINE&lt;/div&gt;" style="rounded=0;whiteSpace=wrap;html=1;" parent="1" vertex="1">
          <mxGeometry x="292" y="-31" width="120" height="60" as="geometry" />
        </mxCell>
        <mxCell id="6ozQBMaHB9t8dY59FctQ-5" value="&lt;div&gt;201-OPEN-EMPLOYEE-LIST&lt;/div&gt;" style="rounded=0;whiteSpace=wrap;html=1;" parent="1" vertex="1">
          <mxGeometry x="-241" y="94" width="120" height="60" as="geometry" />
        </mxCell>
        <mxCell id="6ozQBMaHB9t8dY59FctQ-6" value="202-PROMPT-USER" style="rounded=0;whiteSpace=wrap;html=1;" parent="1" vertex="1">
          <mxGeometry x="-90" y="96" width="120" height="60" as="geometry" />
        </mxCell>
      </root>
    </mxGraphModel>
  </diagram>
</mxfile>
